<?xml version="1.0" encoding="utf-8"?>
<!-- Generator: Adobe Illustrator 20.1.0, SVG Export Plug-In . SVG Version: 6.00 Build 0)  -->
<!DOCTYPE svg PUBLIC "-//W3C//DTD SVG 1.1 Tiny//EN" "http://www.w3.org/Graphics/SVG/1.1/DTD/svg11-tiny.dtd">
<svg version="1.1" baseProfile="tiny" id="Calque_1"
	 xmlns="http://www.w3.org/2000/svg" xmlns:xlink="http://www.w3.org/1999/xlink" x="0px" y="0px" viewBox="0 0 1000 180"
	 xml:space="preserve">
<g>
	<path fill="#244C5A" d="M571.8,3.6c-26.7,0-55.5,4.8-71.9,11.6V175h30.8V38.5c9.9-3.4,23.3-5.8,40.7-5.8c23.3,0,39.4,6.9,39.4,38
		V160c0.6,8.4,7.5,15.1,16,15.1h14.4V69.7C641.3,20.4,614.6,3.6,571.8,3.6z"/>
</g>
<path fill="#244C5A" d="M683.2,90.2c0-49.9,15.3-86.2,74.7-86.2c59.7,0,75,36.1,75,86.2c0,49.9-15.6,86.2-75,86.2
	C698.6,176.4,683.2,140,683.2,90.2z M758,31.5c-36.2,0-42.9,22.3-42.9,58.7c0,36.1,6.7,58.7,42.9,58.7c36.5,0,42.9-22.6,42.9-58.7
	C800.9,53.8,794.5,31.5,758,31.5z"/>
<path fill="#244C5A" d="M903.3,50.7c0-13,13.5-19.2,30.8-19.2c14.4,0,31.1,4.4,43.7,13.8l9.8-26.8c-14.1-9.4-33.9-14.5-53.2-14.5
	c-32.8,0-64.1,14.5-64.1,48.3c0,60.5,90.3,42.3,90.3,75.3c0,14.6-15.8,21-35.4,21c-15.5,0-33.6-4.5-47.2-12.8
	c-2.2,9.8-5.5,18.5-10.5,25.9c14.9,9.6,36.2,14.7,57.1,14.7c35.1,0,69-15.1,69-51.4C993.6,67.3,903.3,86.5,903.3,50.7z"/>
<path fill="#244C5A" d="M163.3,90.1c0-49.9,15.3-86.2,74.7-86.2c59.7,0,75,36.1,75,86.2c0,49.9-15.6,86.2-75,86.2
	C178.6,176.3,163.3,139.9,163.3,90.1z M238,31.4c-36.2,0-42.9,22.3-42.9,58.7c0,36.1,6.7,58.7,42.9,58.7c36.5,0,42.9-22.6,42.9-58.7
	C281,53.7,274.6,31.4,238,31.4z"/>
<path fill="#244C5A" d="M413.3,107.2c25.1-7.1,37.6-25.7,37.6-49.2c0-31.7-17.7-53.2-64.3-53.2h-55.3c9.3,5.5,16.6,14.5,19.6,28
	h35.7c26.2,0,34.1,9.3,34.1,25.1c0,14.8-7.9,24.9-34.1,24.9h-34.1v28h29.1l41.8,64.3h34.4L413.3,107.2z"/>
<path fill="#244C5A" d="M6,5L6,5v28h58.3v126.3c0.1,8.8,7.3,15.8,16.1,15.8h14.3V33h38.6c3-13.6,10.3-22.6,19.6-28H6z"/>
</svg>
